<?xml version="1.0" standalone="no"?>
<!DOCTYPE svg PUBLIC "-//W3C//DTD SVG 20010904//EN"
 "http://www.w3.org/TR/2001/REC-SVG-20010904/DTD/svg10.dtd">
<svg version="1.0" xmlns="http://www.w3.org/2000/svg"
 width="400.000000pt" height="150.000000pt" viewBox="0 0 400.000000 150.000000"
 preserveAspectRatio="xMidYMid meet">

<g transform="translate(0.000000,150.000000) scale(0.100000,-0.100000)"
fill="#000000" stroke="none">
<path d="M1630 1485 c-14 -8 -35 -14 -48 -15 -23 0 -23 -2 -20 -85 2 -47 0
-85 -4 -85 -5 0 -8 38 -8 85 0 78 -2 85 -20 85 -19 0 -20 -7 -20 -120 0 -100
3 -120 15 -120 10 0 15 10 15 33 1 29 2 30 14 15 15 -20 36 -24 36 -6 0 6 2 9
5 6 3 -2 -2 -19 -11 -36 -13 -28 -21 -32 -57 -34 l-42 -1 45 -7 45 -7 -45 -3
-45 -3 38 -4 c47 -5 49 -23 2 -23 -19 0 -35 -4 -35 -10 0 -5 14 -10 30 -10 17
0 30 -4 30 -8 0 -5 -13 -7 -30 -4 -25 4 -30 1 -30 -17 0 -16 6 -21 25 -21 23
0 25 -3 25 -50 0 -47 -2 -50 -25 -50 -16 0 -25 -6 -25 -15 0 -10 10 -15 30
-15 42 0 40 -27 -2 -33 -32 -4 -32 -4 5 -5 20 -1 37 -6 37 -11 0 -5 3 -16 6
-25 5 -13 -2 -16 -35 -16 -40 0 -41 -1 -41 -35 l0 -35 61 0 c52 0 62 -3 66
-20 3 -11 9 -20 14 -20 5 0 9 -6 9 -14 0 -8 7 -16 15 -20 60 -22 -18 -26 -577
-26 -326 0 -603 -3 -615 -6 -20 -6 -22 -13 -22 -63 0 -49 -16 -192 -38 -341
-11 -78 -9 -123 6 -128 10 -3 12 1 8 17 -3 13 1 46 9 74 9 29 23 84 34 122
l18 70 1 -162 1 -163 1360 0 1360 0 0 34 c0 32 1 33 39 32 51 -1 81 25 81 70
0 28 -7 39 -42 65 -24 17 -43 36 -43 42 0 7 18 14 40 17 43 5 57 28 34 56 -10
12 -24 15 -61 10 l-48 -7 0 131 0 130 -466 0 -466 0 24 29 c20 25 30 30 71 30
l48 1 -1 205 c-1 124 -5 203 -11 200 -5 -4 -9 -1 -9 4 0 6 6 11 13 12 6 0 3 4
-8 9 -17 7 -17 9 -2 9 12 1 17 9 17 32 0 27 -3 30 -27 27 -15 -2 -28 2 -30 10
-3 8 6 12 26 12 l31 0 0 78 0 77 -63 33 -62 33 -302 -1 -302 0 -4 -62 -3 -63
-2 63 c-1 34 -5 62 -9 62 -5 -1 -19 -7 -33 -15z m146 -145 c8 0 14 -9 14 -20
0 -18 -7 -20 -65 -20 -56 0 -65 2 -65 18 0 11 7 19 18 19 56 -1 72 4 73 21 1
16 2 16 6 0 2 -10 11 -18 19 -18z m-139 -27 c-3 -10 -5 -4 -5 12 0 17 2 24 5
18 2 -7 2 -21 0 -30z m223 2 c0 -16 -5 -23 -13 -19 -7 2 -13 13 -13 24 0 11 6
20 13 20 7 0 13 -11 13 -25z m37 -17 c-3 -7 -5 -2 -5 12 0 14 2 19 5 13 2 -7
2 -19 0 -25z m35 7 c-2 -14 -6 -25 -8 -25 -2 0 -4 11 -4 25 0 14 4 25 9 25 4
0 6 -11 3 -25z m38 -10 c0 -14 -4 -25 -10 -25 -5 0 -10 11 -10 25 0 14 5 25
10 25 6 0 10 -11 10 -25z m17 -22 c-3 -10 -5 -2 -5 17 0 19 2 27 5 18 2 -10 2
-26 0 -35z m80 -35 c-2 -13 -4 -5 -4 17 -1 22 1 32 4 23 2 -10 2 -28 0 -40z
m33 -4 c0 -21 -4 -33 -10 -29 -5 3 -10 19 -10 36 0 16 5 29 10 29 6 0 10 -16
10 -36z m81 -39 c28 -29 53 -45 73 -47 53 -5 43 -27 -13 -26 -27 0 -55 -3 -60
-7 -6 -3 -11 -1 -11 4 0 6 -11 21 -25 33 -17 15 -25 32 -25 55 0 18 4 33 9 33
5 0 28 -20 52 -45z m59 -95 c0 -19 2 -25 12 -37 8 -10 1 -13 -31 -13 -39 0
-41 2 -41 30 0 27 3 30 30 30 17 0 30 -4 30 -10z m-330 -95 c0 -14 -4 -25 -9
-25 -5 0 -16 -2 -24 -5 -10 -5 -13 1 -9 25 6 39 42 44 42 5z m-73 -32 c-3 -10
-5 -2 -5 17 0 19 2 27 5 18 2 -10 2 -26 0 -35z m118 22 c0 -30 -19 -27 -23 3
-2 13 2 22 10 22 7 0 13 -11 13 -25z m-138 -32 c-3 -10 -5 -2 -5 17 0 19 2 27
5 18 2 -10 2 -26 0 -35z m173 22 c0 -14 -4 -25 -10 -25 -5 0 -10 11 -10 25 0
14 5 25 10 25 6 0 10 -11 10 -25z m37 -22 c-4 -17 -4 -17 -12 0 -4 9 -4 25 0
35 8 16 8 16 12 0 3 -10 3 -26 0 -35z m83 13 c0 -12 -3 -26 -6 -29 -13 -13
-21 3 -16 32 5 35 22 32 22 -3z m17 -13 c-3 -10 -5 -2 -5 17 0 19 2 27 5 18 2
-10 2 -26 0 -35z m-354 -60 c-3 -7 -20 -13 -38 -13 -28 0 -32 3 -28 20 3 11
10 20 15 20 5 0 7 4 4 9 -3 5 1 14 8 20 12 10 15 8 19 -11 3 -17 5 -14 7 12
l2 35 8 -40 c4 -22 5 -45 3 -52z m520 80 c-13 -2 -35 -2 -50 0 -16 2 -5 4 22
4 28 0 40 -2 28 -4z m-436 -60 c-3 -10 -5 -4 -5 12 0 17 2 24 5 18 2 -7 2 -21
0 -30z m-117 -132 c0 -5 6 -11 13 -14 6 -2 1 -2 -13 0 -34 6 -50 23 -22 23 12
0 22 -4 22 -9z m-5 -41 c-3 -5 -10 -10 -16 -10 -5 0 -9 5 -9 10 0 6 7 10 16
10 8 0 12 -4 9 -10z m4 -27 c-1 -5 -1 -10 1 -13 8 -22 8 -50 0 -50 -6 0 -10 9
-10 19 0 11 -3 26 -6 35 -3 9 -1 16 5 16 6 0 10 -3 10 -7z m-29 -43 c0 -5 -4
-10 -10 -10 -5 0 -10 5 -10 10 0 6 5 10 10 10 6 0 10 -4 10 -10z m290 -110 c0
-15 -7 -20 -25 -20 -18 0 -25 5 -25 20 0 15 7 20 25 20 18 0 25 -5 25 -20z
m-170 -10 c0 -5 -9 -10 -20 -10 -11 0 -20 5 -20 10 0 6 9 10 20 10 11 0 20 -4
20 -10z m1456 -301 c11 -19 -31 -47 -61 -42 -22 5 -25 10 -25 49 l0 44 39 -20
c22 -11 43 -25 47 -31z"/>
<path d="M1503 893 c9 -2 25 -2 35 0 9 3 1 5 -18 5 -19 0 -27 -2 -17 -5z"/>
<path d="M410 560 c0 -5 5 -10 10 -10 6 0 10 5 10 10 0 6 -4 10 -10 10 -5 0
-10 -4 -10 -10z"/>
</g>
</svg>
